<?xml version="1.0" standalone="no"?>
<!DOCTYPE svg PUBLIC "-//W3C//DTD SVG 20010904//EN"
 "http://www.w3.org/TR/2001/REC-SVG-20010904/DTD/svg10.dtd">
<svg version="1.0" xmlns="http://www.w3.org/2000/svg"
 width="700.000000pt" height="700.000000pt" viewBox="0 0 700.000000 700.000000"
 preserveAspectRatio="xMidYMid meet">
<metadata>
Created by potrace 1.11, written by Peter Selinger 2001-2013
</metadata>
<g transform="translate(0.000000,700.000000) scale(0.100000,-0.100000)"
fill="#000000" stroke="none">
<path d="M3278 6996 c-1 -2 -41 -6 -88 -10 -87 -7 -105 -9 -225 -27 -116 -18
-123 -19 -192 -35 -154 -34 -203 -47 -313 -81 -260 -79 -581 -227 -815 -374
-116 -73 -181 -119 -317 -226 -541 -428 -943 -1005 -1158 -1663 -28 -87 -75
-256 -85 -311 -3 -13 -12 -58 -20 -99 -8 -41 -17 -89 -19 -105 -3 -17 -7 -46
-11 -66 -20 -123 -30 -281 -30 -504 1 -194 7 -329 20 -406 2 -13 6 -46 9 -74
9 -78 23 -156 51 -285 54 -251 162 -550 288 -800 61 -122 169 -312 187 -330 3
-3 31 -43 62 -90 170 -255 431 -534 708 -755 92 -74 370 -265 386 -265 4 0 15
-6 23 -14 32 -28 314 -166 448 -219 175 -70 410 -144 546 -173 92 -19 211 -41
272 -49 22 -2 56 -7 75 -10 187 -26 692 -27 838 -1 19 4 89 14 142 21 19 3 46
7 60 10 14 3 41 8 60 11 141 24 430 110 624 187 135 53 420 193 463 227 14 11
30 20 35 20 5 0 14 5 21 10 7 6 64 45 127 86 242 160 496 382 672 588 34 39
64 73 68 76 14 11 141 181 202 270 114 167 231 375 302 540 16 36 36 83 46
105 54 123 147 418 176 560 17 81 54 301 59 350 4 33 9 71 11 85 9 47 11 525
3 605 -15 165 -21 220 -24 225 -2 3 -6 30 -10 60 -3 30 -10 71 -15 90 -5 19
-12 51 -15 70 -23 135 -102 396 -177 585 -272 685 -793 1300 -1428 1686 -102
61 -320 175 -410 214 -36 15 -83 35 -105 45 -22 9 -69 27 -105 39 -36 13 -72
26 -80 29 -64 23 -283 83 -375 103 -139 29 -136 28 -180 34 -22 3 -51 7 -65
10 -13 2 -52 7 -86 11 -33 3 -74 8 -90 10 -33 5 -540 14 -546 10z m452 -680
c167 -16 205 -22 355 -53 398 -83 783 -257 1109 -503 58 -44 123 -94 143 -112
52 -45 272 -265 309 -308 80 -95 264 -348 264 -365 0 -3 16 -31 36 -62 55 -87
157 -305 208 -445 43 -120 108 -351 120 -428 3 -19 11 -66 17 -105 6 -38 12
-81 15 -95 23 -142 23 -453 -1 -675 -2 -20 -18 -136 -20 -145 -1 -3 -5 -25 -9
-50 -21 -123 -117 -453 -137 -475 -5 -5 -9 -15 -9 -23 0 -16 -12 -43 -88 -202
-353 -735 -1027 -1292 -1812 -1498 -63 -17 -133 -34 -155 -38 -22 -4 -44 -8
-50 -10 -27 -6 -68 -13 -121 -19 -33 -4 -68 -9 -79 -11 -118 -22 -536 -21
-661 1 -10 2 -44 6 -74 10 -318 40 -718 181 -1017 357 -74 43 -249 161 -303
204 -150 120 -321 284 -426 409 -355 422 -569 908 -648 1475 -19 135 -26 383
-15 534 9 115 18 207 24 226 2 8 6 35 9 60 4 35 41 205 60 275 57 216 175 492
293 692 291 487 727 885 1221 1115 59 27 116 53 127 58 137 65 467 156 670
185 202 29 465 38 645 21z"/>
<path d="M3282 4902 l0 -659 57 14 c87 20 261 18 346 -6 l35 -9 -1 659 0 659
-219 0 -218 0 0 -658z"/>
<path d="M2757 4259 c-91 -92 -107 -113 -96 -125 7 -8 101 -104 211 -213 109
-108 195 -201 191 -205 -5 -4 -8 -11 -9 -14 0 -4 -3 -14 -7 -22 -38 -99 -42
-241 -9 -333 70 -194 241 -323 437 -331 82 -3 149 8 208 33 l43 19 664 -664
c365 -365 666 -664 669 -664 3 0 56 51 118 112 l113 113 -671 671 -671 671 17
49 c56 165 1 369 -132 495 -130 121 -316 166 -474 114 l-51 -17 -209 208
c-115 115 -215 210 -222 211 -6 1 -61 -48 -120 -108z"/>
<path d="M2650 3132 c-63 -48 -308 -234 -545 -412 -561 -423 -535 -403 -526
-415 4 -5 63 -83 130 -172 129 -172 129 -172 173 -131 7 7 150 116 318 243
168 126 382 288 475 358 94 71 212 160 263 198 50 39 92 73 92 77 0 4 -22 26
-49 49 -61 53 -134 149 -174 231 -17 34 -34 62 -37 62 -3 0 -57 -40 -120 -88z"/>
</g>
</svg>
